<?xml version="1.0" encoding="UTF-8"?>
<svg xmlns="http://www.w3.org/2000/svg" width="1040" height="452" viewBox="0 0 1040 452">
<defs>
  <marker id="ar"  markerWidth="8" markerHeight="6" refX="7" refY="3" orient="auto"><polygon points="0 0,8 3,0 6" fill="#c0392b"/></marker>
  <marker id="ar2" markerWidth="8" markerHeight="6" refX="7" refY="3" orient="auto"><polygon points="0 0,8 3,0 6" fill="#7b241c"/></marker>
  <marker id="ar3" markerWidth="8" markerHeight="6" refX="7" refY="3" orient="auto"><polygon points="0 0,8 3,0 6" fill="#922b21"/></marker>
</defs>
<rect width="1040" height="452" fill="white"/>
<rect x="20" y="20" width="158" height="28" rx="4" fill="#c0392b" stroke="#7b241c" stroke-width="1.5"/>
<text x="99" y="33" text-anchor="middle" fill="#ffffff" font-family="Arial,Helvetica,sans-serif" font-size="11">Data Sources</text>
<rect x="218" y="20" width="158" height="28" rx="4" fill="#c0392b" stroke="#7b241c" stroke-width="1.5"/>
<text x="297" y="33" text-anchor="middle" fill="#ffffff" font-family="Arial,Helvetica,sans-serif" font-size="11">React Frontend (Vercel)</text>
<rect x="416" y="20" width="158" height="28" rx="4" fill="#c0392b" stroke="#7b241c" stroke-width="1.5"/>
<text x="495" y="33" text-anchor="middle" fill="#ffffff" font-family="Arial,Helvetica,sans-serif" font-size="11">FastAPI Backend</text>
<rect x="614" y="20" width="158" height="28" rx="4" fill="#c0392b" stroke="#7b241c" stroke-width="1.5"/>
<text x="693" y="33" text-anchor="middle" fill="#ffffff" font-family="Arial,Helvetica,sans-serif" font-size="11">Backend Services</text>
<rect x="812" y="20" width="158" height="28" rx="4" fill="#c0392b" stroke="#7b241c" stroke-width="1.5"/>
<text x="891" y="33" text-anchor="middle" fill="#ffffff" font-family="Arial,Helvetica,sans-serif" font-size="11">Storage &amp; Models</text>
<rect x="20" y="58" width="158" height="40" rx="4" fill="#fdf2f0" stroke="#c0392b" stroke-width="1.5"/>
<text x="99" y="70" text-anchor="middle" fill="#2c2c2c" font-family="Arial,Helvetica,sans-serif" font-size="11">Kaggle Hotel</text>
<text x="99" y="84" text-anchor="middle" fill="#2c2c2c" font-family="Arial,Helvetica,sans-serif" font-size="11">Reservations CSV</text>
<rect x="20" y="110" width="158" height="40" rx="4" fill="#fdf2f0" stroke="#c0392b" stroke-width="1.5"/>
<text x="99" y="129" text-anchor="middle" fill="#2c2c2c" font-family="Arial,Helvetica,sans-serif" font-size="11">User Input</text>
<rect x="20" y="214" width="158" height="40" rx="4" fill="#fdf2f0" stroke="#c0392b" stroke-width="1.5"/>
<text x="99" y="233" text-anchor="middle" fill="#2c2c2c" font-family="Arial,Helvetica,sans-serif" font-size="11">Uploaded Batch CSV</text>
<rect x="218" y="58" width="158" height="40" rx="4" fill="#fdf2f0" stroke="#c0392b" stroke-width="1.5"/>
<text x="297" y="77" text-anchor="middle" fill="#2c2c2c" font-family="Arial,Helvetica,sans-serif" font-size="11">Dashboard &amp; Filters</text>
<rect x="218" y="110" width="158" height="40" rx="4" fill="#fdf2f0" stroke="#c0392b" stroke-width="1.5"/>
<text x="297" y="129" text-anchor="middle" fill="#2c2c2c" font-family="Arial,Helvetica,sans-serif" font-size="11">Prediction Form</text>
<rect x="218" y="162" width="158" height="40" rx="4" fill="#fdf2f0" stroke="#c0392b" stroke-width="1.5"/>
<text x="297" y="181" text-anchor="middle" fill="#2c2c2c" font-family="Arial,Helvetica,sans-serif" font-size="11">What-If Simulator</text>
<rect x="218" y="214" width="158" height="40" rx="4" fill="#fdf2f0" stroke="#c0392b" stroke-width="1.5"/>
<text x="297" y="233" text-anchor="middle" fill="#2c2c2c" font-family="Arial,Helvetica,sans-serif" font-size="11">CSV Upload</text>
<rect x="218" y="266" width="158" height="40" rx="4" fill="#fdf2f0" stroke="#c0392b" stroke-width="1.5"/>
<text x="297" y="285" text-anchor="middle" fill="#2c2c2c" font-family="Arial,Helvetica,sans-serif" font-size="11">Report Download</text>
<rect x="416" y="58" width="158" height="40" rx="4" fill="#fdf2f0" stroke="#c0392b" stroke-width="1.5"/>
<text x="495" y="77" text-anchor="middle" fill="#2c2c2c" font-family="Arial,Helvetica,sans-serif" font-size="11">/summary</text>
<rect x="416" y="110" width="158" height="40" rx="4" fill="#fdf2f0" stroke="#c0392b" stroke-width="1.5"/>
<text x="495" y="129" text-anchor="middle" fill="#2c2c2c" font-family="Arial,Helvetica,sans-serif" font-size="11">/predict</text>
<rect x="416" y="162" width="158" height="40" rx="4" fill="#fdf2f0" stroke="#c0392b" stroke-width="1.5"/>
<text x="495" y="181" text-anchor="middle" fill="#2c2c2c" font-family="Arial,Helvetica,sans-serif" font-size="11">/batch-predict</text>
<rect x="416" y="214" width="158" height="40" rx="4" fill="#fdf2f0" stroke="#c0392b" stroke-width="1.5"/>
<text x="495" y="233" text-anchor="middle" fill="#2c2c2c" font-family="Arial,Helvetica,sans-serif" font-size="11">/report</text>
<rect x="614" y="58" width="158" height="40" rx="4" fill="#fdf2f0" stroke="#922b21" stroke-width="1.5"/>
<text x="693" y="77" text-anchor="middle" fill="#2c2c2c" font-family="Arial,Helvetica,sans-serif" font-size="11">Analytics Service</text>
<rect x="614" y="110" width="158" height="40" rx="4" fill="#fdf2f0" stroke="#922b21" stroke-width="1.5"/>
<text x="693" y="129" text-anchor="middle" fill="#2c2c2c" font-family="Arial,Helvetica,sans-serif" font-size="11">Prediction Pipeline</text>
<rect x="614" y="162" width="158" height="40" rx="4" fill="#fdf2f0" stroke="#922b21" stroke-width="1.5"/>
<text x="693" y="181" text-anchor="middle" fill="#2c2c2c" font-family="Arial,Helvetica,sans-serif" font-size="11">Batch Prediction Service</text>
<rect x="614" y="214" width="158" height="40" rx="4" fill="#fdf2f0" stroke="#922b21" stroke-width="1.5"/>
<text x="693" y="233" text-anchor="middle" fill="#2c2c2c" font-family="Arial,Helvetica,sans-serif" font-size="11">Report Service</text>
<rect x="812" y="58" width="158" height="40" rx="4" fill="#fef9f9" stroke="#7b241c" stroke-width="1.5"/>
<text x="891" y="77" text-anchor="middle" fill="#2c2c2c" font-family="Arial,Helvetica,sans-serif" font-size="11">Processed Dataset</text>
<rect x="812" y="110" width="158" height="40" rx="4" fill="#fef9f9" stroke="#7b241c" stroke-width="1.5"/>
<text x="891" y="129" text-anchor="middle" fill="#2c2c2c" font-family="Arial,Helvetica,sans-serif" font-size="11">Saved Models (.pkl)</text>
<rect x="812" y="162" width="158" height="40" rx="4" fill="#fef9f9" stroke="#7b241c" stroke-width="1.5"/>
<text x="891" y="181" text-anchor="middle" fill="#2c2c2c" font-family="Arial,Helvetica,sans-serif" font-size="11">Prediction Results</text>
<rect x="812" y="214" width="158" height="40" rx="4" fill="#fef9f9" stroke="#7b241c" stroke-width="1.5"/>
<text x="891" y="233" text-anchor="middle" fill="#2c2c2c" font-family="Arial,Helvetica,sans-serif" font-size="11">Generated Reports</text>
<path d="M 178 130 H 218" fill="none" stroke="#c0392b" stroke-width="1.5" marker-end="url(#ar)"/>
<text x="198" y="126" text-anchor="middle" fill="#555" font-family="Arial,Helvetica,sans-serif" font-size="9">enters booking</text>
<path d="M 178 234 H 218" fill="none" stroke="#c0392b" stroke-width="1.5" marker-end="url(#ar)"/>
<text x="198" y="230" text-anchor="middle" fill="#555" font-family="Arial,Helvetica,sans-serif" font-size="9">uploads</text>
<path d="M 376 78 H 416" fill="none" stroke="#c0392b" stroke-width="1.5" marker-end="url(#ar)"/>
<text x="396" y="74" text-anchor="middle" fill="#555" font-family="Arial,Helvetica,sans-serif" font-size="9">GET /summary</text>
<path d="M 376 130 H 416" fill="none" stroke="#c0392b" stroke-width="1.5" marker-end="url(#ar)"/>
<text x="396" y="126" text-anchor="middle" fill="#555" font-family="Arial,Helvetica,sans-serif" font-size="9">POST /predict</text>
<path d="M 376 182 H 392 V 130 H 416" fill="none" stroke="#c0392b" stroke-width="1.5" marker-end="url(#ar)"/>
<path d="M 376 234 H 398 V 182 H 416" fill="none" stroke="#c0392b" stroke-width="1.5" marker-end="url(#ar)"/>
<text x="388" y="230" text-anchor="start" fill="#555" font-family="Arial,Helvetica,sans-serif" font-size="9">POST /batch-predict</text>
<path d="M 376 286 H 404 V 234 H 416" fill="none" stroke="#c0392b" stroke-width="1.5" marker-end="url(#ar)"/>
<text x="388" y="282" text-anchor="start" fill="#555" font-family="Arial,Helvetica,sans-serif" font-size="9">GET /report</text>
<path d="M 574 78 H 614" fill="none" stroke="#922b21" stroke-width="1.5" marker-end="url(#ar3)"/>
<text x="594" y="74" text-anchor="middle" fill="#555" font-family="Arial,Helvetica,sans-serif" font-size="9">calls</text>
<path d="M 574 130 H 614" fill="none" stroke="#922b21" stroke-width="1.5" marker-end="url(#ar3)"/>
<text x="594" y="126" text-anchor="middle" fill="#555" font-family="Arial,Helvetica,sans-serif" font-size="9">calls</text>
<path d="M 574 182 H 614" fill="none" stroke="#922b21" stroke-width="1.5" marker-end="url(#ar3)"/>
<text x="594" y="178" text-anchor="middle" fill="#555" font-family="Arial,Helvetica,sans-serif" font-size="9">calls</text>
<path d="M 574 234 H 614" fill="none" stroke="#922b21" stroke-width="1.5" marker-end="url(#ar3)"/>
<text x="594" y="230" text-anchor="middle" fill="#555" font-family="Arial,Helvetica,sans-serif" font-size="9">calls</text>
<path d="M 772 78 H 812" fill="none" stroke="#7b241c" stroke-width="1.5" marker-end="url(#ar2)"/>
<text x="792" y="74" text-anchor="middle" fill="#555" font-family="Arial,Helvetica,sans-serif" font-size="9">reads</text>
<path d="M 772 130 H 812" fill="none" stroke="#7b241c" stroke-width="1.5" marker-end="url(#ar2)"/>
<text x="792" y="126" text-anchor="middle" fill="#555" font-family="Arial,Helvetica,sans-serif" font-size="9">loads</text>
<path d="M 772 176 H 952 V 126 H 970" fill="none" stroke="#7b241c" stroke-width="1.5" marker-end="url(#ar2)"/>
<text x="956" y="172" text-anchor="start" fill="#7b241c" font-family="Arial,Helvetica,sans-serif" font-size="8">loads</text>
<path d="M 772 182 H 812" fill="none" stroke="#7b241c" stroke-width="1.5" marker-end="url(#ar2)"/>
<text x="792" y="178" text-anchor="middle" fill="#555" font-family="Arial,Helvetica,sans-serif" font-size="9">saves results</text>
<path d="M 772 228 H 960 V 186 H 970" fill="none" stroke="#7b241c" stroke-width="1.5" marker-end="url(#ar2)"/>
<text x="963" y="224" text-anchor="start" fill="#7b241c" font-family="Arial,Helvetica,sans-serif" font-size="8">reads</text>
<path d="M 772 234 H 812" fill="none" stroke="#7b241c" stroke-width="1.5" marker-end="url(#ar2)"/>
<text x="792" y="230" text-anchor="middle" fill="#555" font-family="Arial,Helvetica,sans-serif" font-size="9">generates</text>
<text x="297" y="334" text-anchor="middle" fill="#c0392b" font-family="Arial,Helvetica,sans-serif" font-size="9" font-weight="bold">← JSON responses returned to React Frontend</text>
<rect x="20" y="344" width="910" height="26" rx="4" fill="#4a0e0e" stroke="#2c0b0b" stroke-width="1.5"/>
<text x="475" y="356" text-anchor="middle" fill="#ffffff" font-family="Arial,Helvetica,sans-serif" font-size="10">Offline Model Training  —  run once before deployment</text>
<rect x="20" y="374" width="118" height="48" rx="4" fill="#fdf2f0" stroke="#7b241c" stroke-width="1.5"/>
<text x="79" y="384" text-anchor="middle" fill="#2c2c2c" font-family="Arial,Helvetica,sans-serif" font-size="10">Raw Hotel</text>
<text x="79" y="397" text-anchor="middle" fill="#2c2c2c" font-family="Arial,Helvetica,sans-serif" font-size="10">Reservations</text>
<text x="79" y="410" text-anchor="middle" fill="#2c2c2c" font-family="Arial,Helvetica,sans-serif" font-size="10">Dataset</text>
<rect x="152" y="374" width="118" height="48" rx="4" fill="#fdf2f0" stroke="#7b241c" stroke-width="1.5"/>
<text x="211" y="390.5" text-anchor="middle" fill="#2c2c2c" font-family="Arial,Helvetica,sans-serif" font-size="10">Data Validation</text>
<text x="211" y="403.5" text-anchor="middle" fill="#2c2c2c" font-family="Arial,Helvetica,sans-serif" font-size="10">&amp; Cleaning</text>
<rect x="284" y="374" width="118" height="48" rx="4" fill="#fdf2f0" stroke="#7b241c" stroke-width="1.5"/>
<text x="343" y="390.5" text-anchor="middle" fill="#2c2c2c" font-family="Arial,Helvetica,sans-serif" font-size="10">Feature Engineering</text>
<text x="343" y="403.5" text-anchor="middle" fill="#2c2c2c" font-family="Arial,Helvetica,sans-serif" font-size="10">&amp; Encoding</text>
<rect x="416" y="374" width="118" height="48" rx="4" fill="#fdf2f0" stroke="#7b241c" stroke-width="1.5"/>
<text x="475" y="384" text-anchor="middle" fill="#2c2c2c" font-family="Arial,Helvetica,sans-serif" font-size="10">Train</text>
<text x="475" y="397" text-anchor="middle" fill="#2c2c2c" font-family="Arial,Helvetica,sans-serif" font-size="10">Classification</text>
<text x="475" y="410" text-anchor="middle" fill="#2c2c2c" font-family="Arial,Helvetica,sans-serif" font-size="10">Models</text>
<rect x="548" y="374" width="118" height="48" rx="4" fill="#fdf2f0" stroke="#7b241c" stroke-width="1.5"/>
<text x="607" y="384" text-anchor="middle" fill="#2c2c2c" font-family="Arial,Helvetica,sans-serif" font-size="10">Train</text>
<text x="607" y="397" text-anchor="middle" fill="#2c2c2c" font-family="Arial,Helvetica,sans-serif" font-size="10">Regression</text>
<text x="607" y="410" text-anchor="middle" fill="#2c2c2c" font-family="Arial,Helvetica,sans-serif" font-size="10">Models</text>
<rect x="680" y="374" width="118" height="48" rx="4" fill="#fdf2f0" stroke="#7b241c" stroke-width="1.5"/>
<text x="739" y="384" text-anchor="middle" fill="#2c2c2c" font-family="Arial,Helvetica,sans-serif" font-size="10">Evaluate &amp;</text>
<text x="739" y="397" text-anchor="middle" fill="#2c2c2c" font-family="Arial,Helvetica,sans-serif" font-size="10">Compare</text>
<text x="739" y="410" text-anchor="middle" fill="#2c2c2c" font-family="Arial,Helvetica,sans-serif" font-size="10">Models</text>
<rect x="812" y="374" width="118" height="48" rx="4" fill="#fef9f9" stroke="#7b241c" stroke-width="1.5"/>
<text x="871" y="390.5" text-anchor="middle" fill="#2c2c2c" font-family="Arial,Helvetica,sans-serif" font-size="10">Save Models</text>
<text x="871" y="403.5" text-anchor="middle" fill="#2c2c2c" font-family="Arial,Helvetica,sans-serif" font-size="10">&amp; Pipeline</text>
<line x1="138" y1="398" x2="152" y2="398" stroke="#7b241c" stroke-width="1.5" marker-end="url(#ar2)"/>
<line x1="270" y1="398" x2="284" y2="398" stroke="#7b241c" stroke-width="1.5" marker-end="url(#ar2)"/>
<line x1="402" y1="398" x2="416" y2="398" stroke="#7b241c" stroke-width="1.5" marker-end="url(#ar2)"/>
<line x1="534" y1="398" x2="548" y2="398" stroke="#7b241c" stroke-width="1.5" marker-end="url(#ar2)"/>
<line x1="666" y1="398" x2="680" y2="398" stroke="#7b241c" stroke-width="1.5" marker-end="url(#ar2)"/>
<line x1="798" y1="398" x2="812" y2="398" stroke="#7b241c" stroke-width="1.5" marker-end="url(#ar2)"/>
<path d="M 930 398 H 988 V 130 H 970" fill="none" stroke="#7b241c" stroke-width="1.5" stroke-dasharray="5,3" marker-end="url(#ar2)"/>
<text x="990" y="392" text-anchor="start" fill="#7b241c" font-family="Arial,Helvetica,sans-serif" font-size="8">saves models &amp; pipeline</text>
</svg>