<?xml version="1.0" encoding="UTF-8"?>
<svg xmlns="http://www.w3.org/2000/svg" width="540" height="794" viewBox="0 0 540 794">
<defs>
  <marker id="ar"  markerWidth="8" markerHeight="6" refX="7" refY="3" orient="auto"><polygon points="0 0,8 3,0 6" fill="#c0392b"/></marker>
  <marker id="ar2" markerWidth="8" markerHeight="6" refX="7" refY="3" orient="auto"><polygon points="0 0,8 3,0 6" fill="#7b241c"/></marker>
  <marker id="ar3" markerWidth="8" markerHeight="6" refX="7" refY="3" orient="auto"><polygon points="0 0,8 3,0 6" fill="#922b21"/></marker>
</defs>
<rect width="540" height="794" fill="white"/>
<text x="270" y="22" text-anchor="middle" fill="#c0392b" font-family="Arial,Helvetica,sans-serif" font-size="13" font-weight="bold">CSV Upload &amp; Report Flow</text>
<rect x="80" y="36" width="380" height="40" rx="4" fill="#fdf2f0" stroke="#c0392b" stroke-width="1.5"/>
<text x="270" y="55" text-anchor="middle" fill="#2c2c2c" font-family="Arial,Helvetica,sans-serif" font-size="11">User selects CSV file</text>
<line x1="270" y1="76" x2="270" y2="104" stroke="#c0392b" stroke-width="1.5" marker-end="url(#ar)"/>
<rect x="80" y="104" width="380" height="40" rx="4" fill="#fdf2f0" stroke="#c0392b" stroke-width="1.5"/>
<text x="270" y="123" text-anchor="middle" fill="#2c2c2c" font-family="Arial,Helvetica,sans-serif" font-size="11">React Frontend</text>
<line x1="270" y1="144" x2="270" y2="172" stroke="#c0392b" stroke-width="1.5" marker-end="url(#ar)"/>
<text x="275" y="162" text-anchor="start" fill="#555" font-family="Arial,Helvetica,sans-serif" font-size="9">POST /batch-predict</text>
<rect x="80" y="172" width="380" height="40" rx="4" fill="#fdf2f0" stroke="#c0392b" stroke-width="1.5"/>
<text x="270" y="191" text-anchor="middle" fill="#2c2c2c" font-family="Arial,Helvetica,sans-serif" font-size="11">FastAPI  /batch-predict</text>
<line x1="270" y1="212" x2="270" y2="240" stroke="#c0392b" stroke-width="1.5" marker-end="url(#ar)"/>
<text x="275" y="230" text-anchor="start" fill="#555" font-family="Arial,Helvetica,sans-serif" font-size="9">calls</text>
<rect x="80" y="240" width="380" height="40" rx="4" fill="#fdf2f0" stroke="#922b21" stroke-width="1.5"/>
<text x="270" y="259" text-anchor="middle" fill="#2c2c2c" font-family="Arial,Helvetica,sans-serif" font-size="11">File Validation</text>
<line x1="270" y1="280" x2="270" y2="308" stroke="#922b21" stroke-width="1.5" marker-end="url(#ar3)"/>
<text x="275" y="298" text-anchor="start" fill="#555" font-family="Arial,Helvetica,sans-serif" font-size="9">preprocesses rows</text>
<rect x="80" y="308" width="380" height="40" rx="4" fill="#fdf2f0" stroke="#922b21" stroke-width="1.5"/>
<text x="270" y="327" text-anchor="middle" fill="#2c2c2c" font-family="Arial,Helvetica,sans-serif" font-size="11">Data Preprocessing</text>
<line x1="270" y1="348" x2="270" y2="376" stroke="#922b21" stroke-width="1.5" marker-end="url(#ar3)"/>
<text x="275" y="366" text-anchor="start" fill="#555" font-family="Arial,Helvetica,sans-serif" font-size="9">runs both models</text>
<rect x="80" y="376" width="380" height="40" rx="4" fill="#fdf2f0" stroke="#922b21" stroke-width="1.5"/>
<text x="270" y="395" text-anchor="middle" fill="#2c2c2c" font-family="Arial,Helvetica,sans-serif" font-size="11">Classification &amp; Regression Models</text>
<line x1="270" y1="416" x2="270" y2="444" stroke="#922b21" stroke-width="1.5" marker-end="url(#ar3)"/>
<text x="275" y="434" text-anchor="start" fill="#555" font-family="Arial,Helvetica,sans-serif" font-size="9">creates</text>
<rect x="80" y="444" width="380" height="40" rx="4" fill="#fdf2f0" stroke="#922b21" stroke-width="1.5"/>
<text x="270" y="463" text-anchor="middle" fill="#2c2c2c" font-family="Arial,Helvetica,sans-serif" font-size="11">Results Table</text>
<line x1="270" y1="484" x2="270" y2="512" stroke="#7b241c" stroke-width="1.5" marker-end="url(#ar2)"/>
<text x="275" y="502" text-anchor="start" fill="#555" font-family="Arial,Helvetica,sans-serif" font-size="9">saves to storage</text>
<rect x="80" y="512" width="380" height="40" rx="4" fill="#fef9f9" stroke="#7b241c" stroke-width="1.5"/>
<text x="270" y="531" text-anchor="middle" fill="#2c2c2c" font-family="Arial,Helvetica,sans-serif" font-size="11">Save Prediction Results</text>
<line x1="270" y1="552" x2="270" y2="580" stroke="#c0392b" stroke-width="1.5" marker-end="url(#ar)"/>
<text x="275" y="570" text-anchor="start" fill="#555" font-family="Arial,Helvetica,sans-serif" font-size="9">User clicks Download → GET /report</text>
<rect x="80" y="580" width="380" height="40" rx="4" fill="#fdf2f0" stroke="#c0392b" stroke-width="1.5"/>
<text x="270" y="599" text-anchor="middle" fill="#2c2c2c" font-family="Arial,Helvetica,sans-serif" font-size="11">FastAPI  /report</text>
<line x1="270" y1="620" x2="270" y2="648" stroke="#922b21" stroke-width="1.5" marker-end="url(#ar3)"/>
<text x="275" y="638" text-anchor="start" fill="#555" font-family="Arial,Helvetica,sans-serif" font-size="9">reads saved results → generates</text>
<rect x="80" y="648" width="380" height="40" rx="4" fill="#fdf2f0" stroke="#922b21" stroke-width="1.5"/>
<text x="270" y="667" text-anchor="middle" fill="#2c2c2c" font-family="Arial,Helvetica,sans-serif" font-size="11">Report Generation Service</text>
<line x1="270" y1="688" x2="270" y2="716" stroke="#c0392b" stroke-width="1.5" marker-end="url(#ar)"/>
<text x="275" y="706" text-anchor="start" fill="#555" font-family="Arial,Helvetica,sans-serif" font-size="9">returns file</text>
<rect x="80" y="716" width="380" height="40" rx="4" fill="#fef0ee" stroke="#c0392b" stroke-width="1.5"/>
<text x="270" y="735" text-anchor="middle" fill="#2c2c2c" font-family="Arial,Helvetica,sans-serif" font-size="11">Downloadable CSV or PDF Report</text>
</svg>